<?xml version="1.0" encoding="UTF-8"?>
<svg width="99px" height="25px" viewBox="0 0 99 25" version="1.1" xmlns="http://www.w3.org/2000/svg" xmlns:xlink="http://www.w3.org/1999/xlink">
    <!-- Generator: Sketch 46.2 (44496) - http://www.bohemiancoding.com/sketch -->
    <title>Speed mark</title>
    <desc>Created with Sketch.</desc>
    <defs></defs>
    <g id="Desktop" stroke="none" stroke-width="1" fill="none" fill-rule="evenodd">
        <g id="nav---open" transform="translate(-36.000000, -44.000000)" fill-rule="nonzero">
            <g id="_header" transform="translate(-1.000000, -24.000000)">
                <g id="Nav" transform="translate(37.000000, 0.000000)">
                    <g id="Speed-mark" transform="translate(0.000000, 68.000000)">
                        <path d="M91.626,9.016 C88.862,11.763 82.874,14.121 79.928,15.225 C75.903,16.737 74.117,17.272 71.865,18.005 C69.316,18.832 64.217,20.375 64.217,20.375 C74.78,23.529 82.224,24.48 82.224,24.48 C82.224,24.48 85.692,23.408 91.186,20.47 C94.161,18.958 95.625,17.94 96.672,16.967 C97.058,16.618 98.055,15.58 98.303,14.252 C98.319,14.155 98.367,13.901 98.367,13.651 C98.367,13.651 98.367,13.475 98.351,13.322 C98.345,13.146 98.314,13.028 98.314,13.028 C98.314,13.028 98.255,12.713 98.177,12.492 C98.096,12.271 97.756,11.589 97.205,11.146 C96.837,10.847 96.201,10.102 93.897,9.292 C93.114,9.02 91.846,8.769 91.846,8.769 L91.626,9.016 Z" id="Shape" fill="#2E5C99"></path>
                        <path d="M98.367,13.581 C98.367,13.581 98.351,13.287 98.279,13.038 C98.223,12.816 98.124,12.604 97.975,12.381 C97.795,12.116 97.552,11.805 97.193,11.461 C96.922,11.205 96.625,10.979 96.267,10.739 C94.826,9.795 92.966,9.263 91.32,9.038 C88.769,8.699 85.843,8.759 85.566,8.749 C84.625,8.736 78.545,8.786 76.982,8.814 C70.041,8.957 61.544,8.976 59.318,8.976 C36.339,9.081 26.337,8.586 15.205,6.354 C5.735,4.473 0.481,2.686 0.481,2.686 C8.834,2.397 57.572,0.375 66.463,0.139 C72.284,-0.025 76.417,-0.06 79.724,0.131 C81.42,0.226 82.998,0.37 84.98,0.707 C86.757,1.011 88.371,1.527 89.311,1.876 C91.291,2.609 92.96,3.669 93.785,4.755 C93.785,4.755 94.029,5.005 94.36,5.449 C94.731,5.965 95.162,6.6 95.308,6.837 C96.513,8.663 97.085,9.81 97.284,10.21 C97.499,10.63 97.689,11.066 97.874,11.493 C98.055,11.917 98.129,12.174 98.187,12.353 C98.314,12.802 98.345,13.211 98.351,13.303 L98.367,13.581 Z" id="Shape" fill="#CE210F"></path>
                    </g>
                </g>
            </g>
        </g>
    </g>
</svg>